<svg xmlns="http://www.w3.org/2000/svg" viewBox="0 0 69 71">
  <path d="M990.675,352.857l-28.815-55-28.814,55h57.629Z" transform="translate(-927 -284)"/>
  <path d="M961.5,285A33.216,33.216,0,1,1,928,318.214,33.357,33.357,0,0,1,961.5,285Z" transform="translate(-927 -284)"/>
  <path d="M961.86,347.857a3.572,3.572,0,1,1-3.6,3.572A3.587,3.587,0,0,1,961.86,347.857Z" transform="translate(-927 -284)"/>
  <circle cx="61.515" cy="67.422" r="3.61"/>
  <path d="M933.043,347.857a3.572,3.572,0,1,1-3.6,3.572A3.587,3.587,0,0,1,933.043,347.857Z" transform="translate(-927 -284)"/>
</svg>
