<svg xmlns="http://www.w3.org/2000/svg">
	<symbol id="logo" viewBox="0 0 69 71">
		<path fill="none"; d="M990.675,352.857l-28.815-55-28.814,55h57.629Z" transform="translate(-927 -284)"/>
		<path fill="none" d="M961.5,285A33.216,33.216,0,1,1,928,318.214,33.357,33.357,0,0,1,961.5,285Z" transform="translate(-927 -284)"/>
		<path d="M961.86,347.857a3.572,3.572,0,1,1-3.6,3.572A3.587,3.587,0,0,1,961.86,347.857Z" transform="translate(-927 -284)"/>
		<circle cx="61.515" cy="67.422" r="3.61"/>
		<path d="M933.043,347.857a3.572,3.572,0,1,1-3.6,3.572A3.587,3.587,0,0,1,933.043,347.857Z" transform="translate(-927 -284)"/>
	</symbol>	
	<symbol id="scroll" viewBox="0 0 23 37">
		<path d="M961.5,929.757a1.659,1.659,0,1,0,1.657,1.659A1.66,1.66,0,0,0,961.5,929.757Zm-0.954-9.764A11.475,11.475,0,0,0,950,931.416V945.49a11.5,11.5,0,1,0,23,0V931.416a11.481,11.481,0,0,0-10.545-11.423m-0.954,35.1a9.607,9.607,0,0,1-9.591-9.6V931.416a9.591,9.591,0,1,1,19.182,0V945.49A9.607,9.607,0,0,1,961.5,955.091Z" transform="translate(-950 -920)"/>
	</symbol>
	
	<symbol id="Shape2" viewBox="0 0 79.969 83.03">
		<path d="M994.956,2434.99H983.032a2.015,2.015,0,0,0-2.025,2.02v4.17H932.86v-4.17a2.015,2.015,0,0,0-2.024-2.02H919.024a2.015,2.015,0,0,0-2.025,2.02v12.27a2.015,2.015,0,0,0,2.025,2.02h11.924a2.015,2.015,0,0,0,2.025-2.02v-4.17h22.161c-0.225,4.95-12.262,28.24-19.911,41.97a2.073,2.073,0,0,0,.45,2.47c6.862,5.85,8.549,11.59,9,14.52h-2.587a2.015,2.015,0,0,0-2.025,2.02v9.9a2.018,2.018,0,0,0,2.025,2.03h29.923a2.018,2.018,0,0,0,2.025-2.03v-9.9a2.015,2.015,0,0,0-2.025-2.02H969.42c0.45-2.93,2.138-8.67,9-14.52a2.045,2.045,0,0,0,.45-2.47c-7.65-13.73-19.686-37.13-19.911-41.97h22.048v4.17a2.015,2.015,0,0,0,2.025,2.02h11.924a2.015,2.015,0,0,0,2.025-2.02v-12.27A2.015,2.015,0,0,0,994.956,2434.99Zm-66.033,12.26h-7.987v-8.32h7.987v8.32Zm28.123,32.97a2.585,2.585,0,1,1-2.587,2.58A2.689,2.689,0,0,1,957.046,2480.22Zm13.049,33.64H944.11v-5.97H970.1v5.97Zm-4.612-9.91H948.609c-0.45-3.26-2.137-9.78-9.224-16.42,2.7-4.95,10.8-19.8,15.636-30.83v19.92a6.439,6.439,0,0,0-4.5,6.18,6.525,6.525,0,1,0,8.549-6.18v-20.03c4.95,11.03,12.937,25.88,15.636,30.94C967.621,2494.17,965.933,2500.69,965.483,2503.95Zm27.561-56.7h-7.987v-8.21h7.987v8.21Z" transform="translate(-917 -2435)"/>
	</symbol>

</svg>